<svg width="21" height="25" viewBox="0 0 21 25" fill="none" xmlns="http://www.w3.org/2000/svg">
<path d="M3.42969 6.7041H12.5781V8.11035H3.42969V6.7041Z" fill="black"/>
<path d="M3.42969 9.5166H12.5781V10.9229H3.42969V9.5166Z" fill="black"/>
<path d="M3.42969 12.3291H12.5781V13.7354H3.42969V12.3291Z" fill="black"/>
<path d="M18.5463 15.7054C17.8263 14.9853 16.9386 14.5328 16.0078 14.3471V0.200928H3.22434L0 3.42532V20.8824H10.3326C10.5765 21.5746 10.9741 22.2091 11.5084 22.7433C12.4484 23.6833 13.6981 24.2009 15.0274 24.2009C16.3566 24.2009 17.6064 23.6833 18.5463 22.7433C20.4867 20.803 20.4867 17.6458 18.5463 15.7054ZM3.69066 1.72338V3.89158H1.52245L3.69066 1.72338ZM1.40625 19.4762V5.29788H5.09691V1.60718H14.6016V14.2686C13.4726 14.3647 12.3704 14.8434 11.5084 15.7054C10.5684 16.6453 10.0508 17.8951 10.0508 19.2243C10.0508 19.3086 10.0529 19.3925 10.057 19.4761H1.40625V19.4762ZM17.552 21.7489C16.8776 22.4233 15.981 22.7947 15.0274 22.7947C14.0737 22.7947 13.1771 22.4233 12.5028 21.7489C11.8284 21.0746 11.457 20.178 11.457 19.2244C11.457 18.2708 11.8284 17.3741 12.5028 16.6998C13.1989 16.0037 14.113 15.6558 15.0274 15.6558C15.9415 15.6558 16.856 16.0038 17.5519 16.6998C18.944 18.0919 18.944 20.3569 17.552 21.7489Z" fill="black"/>
<path d="M15.7304 17.3481H14.3242V18.5212H13.1511V19.9275H14.3242V21.1006H15.7304V19.9275H16.9035V18.5212H15.7304V17.3481Z" fill="black"/>
</svg>
