<svg width="215" height="36" viewBox="0 0 215 36" fill="none" xmlns="http://www.w3.org/2000/svg">
<g clip-path="url(#clip0_332_49)">
<path d="M201.386 21.1381C202.403 22.211 203.844 22.8026 205.341 22.7611C206.829 22.8061 208.264 22.2181 209.272 21.1511C210.297 20.0746 210.848 18.6496 210.807 17.1819C210.842 15.7131 210.281 14.2904 209.247 13.2234C208.23 12.1505 206.789 11.5589 205.292 11.5992C203.804 11.5554 202.369 12.1422 201.361 13.2104C200.336 14.2869 199.786 15.7107 199.826 17.1796C199.791 18.6473 200.351 20.0711 201.386 21.1381ZM212.226 23.687C210.378 25.4712 208.067 26.3639 205.292 26.3639C202.516 26.3639 200.212 25.476 198.38 23.7C196.578 21.9917 195.584 19.6313 195.634 17.1808C195.59 14.7291 196.595 12.371 198.406 10.6722C200.254 8.88793 202.566 7.9964 205.341 7.9964C208.119 7.9964 210.422 8.88437 212.252 10.6603C214.054 12.3687 215.049 14.7291 214.998 17.1808C215.042 19.6313 214.038 21.9893 212.226 23.687ZM174.838 26.0592V8.30109H178.847V16.0652L186.239 8.30109H191.08L183.663 15.8364L191.417 26.0592H186.603L180.955 18.4991L178.847 20.6295V26.0592H174.838ZM167.865 8.30109V26.0592H163.908V14.4149L155.944 26.0592H152.169V8.30109H156.124V19.9466L164.143 8.30109H167.865ZM133.247 21.3657V12.716C131.772 12.716 130.584 13.1084 129.682 13.8956C128.779 14.6816 128.328 15.7261 128.328 17.0278C128.328 18.3473 128.779 19.4001 129.682 20.1861C130.584 20.9733 131.772 21.3657 133.247 21.3657ZM137.257 26.7682H133.247V24.8417C130.488 24.8417 128.293 24.1019 126.662 22.6212C125.033 21.1416 124.218 19.2519 124.218 16.9519C124.218 14.6864 125.033 12.8346 126.664 11.3965C128.294 9.95847 130.49 9.24003 133.248 9.24003V7.61703H137.257V9.24003C139.997 9.24003 142.188 9.96321 143.828 11.4096C145.468 12.8559 146.288 14.7113 146.288 16.978C146.288 19.2614 145.473 21.1416 143.842 22.6212C142.21 24.1019 140.015 24.8417 137.257 24.8417V26.7682ZM137.257 12.716V21.3657C138.731 21.3657 139.916 20.9733 140.809 20.1861C141.702 19.4001 142.149 18.3473 142.149 17.0278C142.149 15.7261 141.702 14.6816 140.809 13.8956C139.916 13.1084 138.731 12.716 137.257 12.716ZM102.928 26.0592V8.30109H106.936V15.3289H114.328V8.30109H118.335V26.0592H114.328V18.9306H106.936V26.0592H102.928ZM95.9528 8.30109V26.0592H91.9963V14.4149L84.0324 26.0592H80.2583V8.30109H84.2147V19.9466L92.2309 8.30109H95.9528ZM64.2782 17.2554H67.4533C68.4425 17.2554 69.2189 17.0017 69.7827 16.4943C70.3478 15.9857 70.6564 15.2637 70.6297 14.5157C70.6297 13.6526 70.3429 12.9887 69.7706 12.524C69.197 12.0581 68.3999 11.8257 67.3756 11.8257H64.2782V17.2554ZM60.2696 26.0592V8.30109H67.7134C69.8654 8.30109 71.5653 8.86777 72.8145 10.0011C74.0636 11.1345 74.6882 12.6319 74.6882 14.492C74.6882 16.4706 73.9955 18.0047 72.6079 19.0966C71.219 20.1873 69.4583 20.7326 67.3233 20.7326H64.2782V26.0592H60.2696ZM45.0441 26.0592V11.9039H39.5007V8.30109H54.5962V11.9039H49.0528V26.0592H45.0441Z" fill="#032953"/>
<path d="M28.5113 26.741L33.8153 18.3237C34.1555 17.7842 34.1555 17.1037 33.8153 16.5631L31.3449 12.6437C31.0314 12.1458 30.4737 11.8411 29.8734 11.8411H23.6605L26.6947 7.0243C27.0361 6.48488 27.0361 5.8032 26.6947 5.26378L23.8841 0.802608C23.5706 0.303497 23.0129 0 22.4114 0H11.7475C11.146 0 10.5883 0.303497 10.2747 0.802608L7.37426 5.40368C7.03524 5.94428 7.03524 6.62478 7.37426 7.16538L10.3209 11.8411H4.28542C3.68515 11.8411 3.12741 12.1458 2.81391 12.6437L0.256086 16.7042C-0.0853622 17.2436 -0.0853622 17.9253 0.256086 18.4647L6.15549 27.8281C6.46899 28.3272 7.02673 28.6319 7.627 28.6319H12.1144C12.7147 28.6319 13.2725 28.3272 13.5872 27.8281L16.9907 22.4256L17.0114 22.4588L25.0312 35.2258C25.3313 35.7024 25.8623 35.9929 26.4358 35.9941L30.8382 36L21.2072 20.6639C20.8925 20.1636 20.3347 19.8589 19.7332 19.8589H14.247C13.6455 19.8589 13.089 20.1636 12.7743 20.6615L9.87133 25.2685L4.18943 16.2513H9.84581C10.4631 16.2513 11.0342 15.9312 11.3428 15.4096L14.0052 10.9164C14.3223 10.3817 14.3138 9.72021 13.9821 9.19383L10.9674 4.41019H23.0141L20.0455 9.12152C19.7138 9.64789 19.7041 10.3094 20.0212 10.8441L22.7273 15.4096C23.0372 15.9312 23.607 16.2513 24.2243 16.2513H29.792L25.8477 22.5133L28.5113 26.741Z" fill="#032953"/>
</g>
<defs>
<clipPath id="clip0_332_49">
<rect width="215" height="36" fill="white"/>
</clipPath>
</defs>
</svg>
