<svg width="39" height="51" viewBox="0 0 39 51" fill="none" xmlns="http://www.w3.org/2000/svg">
<g clip-path="url(#clip0_3_24)">
<path d="M19.6545 0.97345C9.25447 0.97345 0.793945 9.43398 0.793945 19.8327C0.793945 34.805 17.6308 49.8458 18.3479 50.48C18.7229 50.809 19.1887 50.9734 19.6545 50.9734C20.1387 50.9734 20.6229 50.7958 21.0005 50.4419C21.715 49.7734 38.515 33.905 38.515 19.834C38.515 9.43529 30.0519 0.97345 19.6545 0.97345ZM19.6545 28.8261C14.6874 28.8261 10.6624 24.7984 10.6624 19.8353C10.6624 14.8721 14.6874 10.8445 19.6545 10.8445C24.619 10.8445 28.644 14.8708 28.644 19.8353C28.644 24.7998 24.619 28.8261 19.6545 28.8261Z" fill="#032953"/>
</g>
<defs>
<clipPath id="clip0_3_24">
<rect width="39" height="51" fill="white"/>
</clipPath>
</defs>
</svg>
